<svg width="113" height="82" viewBox="0 0 113 82" fill="none" xmlns="http://www.w3.org/2000/svg">
<g filter="url(#filter0_bd_8_29)">
<mask id="path-1-outside-1_8_29" maskUnits="userSpaceOnUse" x="15" y="11.6234" width="83" height="51" fill="black">
<rect fill="white" x="15" y="11.6234" width="83" height="51"/>
<path fill-rule="evenodd" clip-rule="evenodd" d="M73.3787 35.1343C73.3787 35.8852 73.3403 36.6271 73.2652 37.3581C75.5827 35.344 78.6095 34.1247 81.921 34.1247C89.2121 34.1247 95.1226 40.0353 95.1226 47.3264C95.1226 54.6174 89.2121 60.528 81.921 60.528H30.6002C30.5968 60.528 30.5933 60.528 30.5899 60.528C30.5865 60.528 30.5831 60.528 30.5796 60.528H30.5123V60.5278C23.0425 60.486 17 54.4177 17 46.9381C17 39.486 22.9982 33.4348 30.43 33.3491C31.3373 22.3042 40.5888 13.6234 51.8679 13.6234C63.748 13.6234 73.3787 23.2541 73.3787 35.1343Z"/>
</mask>
<path fill-rule="evenodd" clip-rule="evenodd" d="M73.3787 35.1343C73.3787 35.8852 73.3403 36.6271 73.2652 37.3581C75.5827 35.344 78.6095 34.1247 81.921 34.1247C89.2121 34.1247 95.1226 40.0353 95.1226 47.3264C95.1226 54.6174 89.2121 60.528 81.921 60.528H30.6002C30.5968 60.528 30.5933 60.528 30.5899 60.528C30.5865 60.528 30.5831 60.528 30.5796 60.528H30.5123V60.5278C23.0425 60.486 17 54.4177 17 46.9381C17 39.486 22.9982 33.4348 30.43 33.3491C31.3373 22.3042 40.5888 13.6234 51.8679 13.6234C63.748 13.6234 73.3787 23.2541 73.3787 35.1343Z" fill="url(#paint0_linear_8_29)" shape-rendering="crispEdges"/>
<path d="M73.2652 37.3581L71.2757 37.1538L70.7588 42.1862L74.5771 38.8677L73.2652 37.3581ZM30.5123 60.528H28.5123V62.528H30.5123V60.528ZM30.5123 60.5278H32.5123V58.539L30.5235 58.5278L30.5123 60.5278ZM30.43 33.3491L30.453 35.349L32.2741 35.328L32.4233 33.5129L30.43 33.3491ZM75.2547 37.5625C75.3368 36.7637 75.3787 35.9535 75.3787 35.1343H71.3787C71.3787 35.8168 71.3438 36.4905 71.2757 37.1538L75.2547 37.5625ZM81.921 32.1247C78.1092 32.1247 74.6208 33.5303 71.9532 35.8486L74.5771 38.8677C76.5446 37.1578 79.1097 36.1247 81.921 36.1247V32.1247ZM97.1226 47.3264C97.1226 38.9307 90.3166 32.1247 81.921 32.1247V36.1247C88.1075 36.1247 93.1226 41.1399 93.1226 47.3264H97.1226ZM81.921 62.528C90.3166 62.528 97.1226 55.722 97.1226 47.3264H93.1226C93.1226 53.5129 88.1075 58.528 81.921 58.528V62.528ZM81.921 58.528H30.6002V62.528H81.921V58.528ZM30.5899 62.528C30.5923 62.528 30.5946 62.528 30.5962 62.528C30.598 62.528 30.5991 62.528 30.6002 62.528V58.528C30.5978 58.528 30.5956 58.528 30.594 58.528C30.5921 58.528 30.591 58.528 30.5899 58.528V62.528ZM30.5796 62.528C30.5807 62.528 30.5819 62.528 30.5837 62.528C30.5853 62.528 30.5876 62.528 30.5899 62.528V58.528C30.5889 58.528 30.5877 58.528 30.5859 58.528C30.5843 58.528 30.582 58.528 30.5796 58.528V62.528ZM30.5796 58.528H30.5123V62.528H30.5796V58.528ZM32.5123 60.528V60.5278H28.5123V60.528H32.5123ZM15 46.9381C15 55.5185 21.9317 62.4798 30.5011 62.5278L30.5235 58.5278C24.1532 58.4922 19 53.3169 19 46.9381H15ZM30.4069 31.3492C21.8809 31.4476 15 38.3891 15 46.9381H19C19 40.5828 24.1155 35.4221 30.453 35.349L30.4069 31.3492ZM51.8679 11.6234C39.5392 11.6234 29.4286 21.1114 28.4367 33.1853L32.4233 33.5129C33.2461 23.4969 41.6385 15.6234 51.8679 15.6234V11.6234ZM75.3787 35.1343C75.3787 22.1496 64.8526 11.6234 51.8679 11.6234V15.6234C62.6434 15.6234 71.3787 24.3587 71.3787 35.1343H75.3787Z" fill="url(#paint1_linear_8_29)" mask="url(#path-1-outside-1_8_29)"/>
</g>
<defs>
<filter id="filter0_bd_8_29" x="0" y="0.623377" width="112.123" height="80.9046" filterUnits="userSpaceOnUse" color-interpolation-filters="sRGB">
<feFlood flood-opacity="0" result="BackgroundImageFix"/>
<feGaussianBlur in="BackgroundImageFix" stdDeviation="5"/>
<feComposite in2="SourceAlpha" operator="in" result="effect1_backgroundBlur_8_29"/>
<feColorMatrix in="SourceAlpha" type="matrix" values="0 0 0 0 0 0 0 0 0 0 0 0 0 0 0 0 0 0 127 0" result="hardAlpha"/>
<feOffset dy="4"/>
<feGaussianBlur stdDeviation="7.5"/>
<feComposite in2="hardAlpha" operator="out"/>
<feColorMatrix type="matrix" values="0 0 0 0 0 0 0 0 0 0 0 0 0 0 0 0 0 0 0.1 0"/>
<feBlend mode="normal" in2="effect1_backgroundBlur_8_29" result="effect2_dropShadow_8_29"/>
<feBlend mode="normal" in="SourceGraphic" in2="effect2_dropShadow_8_29" result="shape"/>
</filter>
<linearGradient id="paint0_linear_8_29" x1="41.2814" y1="13.4278" x2="60.073" y2="60.7236" gradientUnits="userSpaceOnUse">
<stop stop-color="white"/>
<stop offset="0.708333" stop-color="#9DDCFF" stop-opacity="0.69"/>
</linearGradient>
<linearGradient id="paint1_linear_8_29" x1="53.5276" y1="-2.61903" x2="79.4981" y2="79.7264" gradientUnits="userSpaceOnUse">
<stop stop-color="white"/>
<stop offset="0.713542" stop-color="#85C6EC" stop-opacity="0.71"/>
</linearGradient>
</defs>
</svg>
